<?xml version="1.0" standalone="no"?>
<!DOCTYPE svg PUBLIC "-//W3C//DTD SVG 1.1//EN" "http://www.w3.org/Graphics/SVG/1.1/DTD/svg11.dtd" >
<svg xmlns="http://www.w3.org/2000/svg" xmlns:xlink="http://www.w3.org/1999/xlink" version="1.1">
<metadata></metadata>
<defs>
<font id="valorantregular" horiz-adv-x="1656" >
<font-face units-per-em="2048" ascent="1536" descent="-512" />
<missing-glyph horiz-adv-x="573" />
<glyph horiz-adv-x="0" />
<glyph horiz-adv-x="0" />
<glyph unicode="&#xd;" horiz-adv-x="512" />
<glyph unicode=" "  horiz-adv-x="573" />
<glyph unicode="&#x09;" horiz-adv-x="573" />
<glyph unicode="&#xa0;" horiz-adv-x="573" />
<glyph unicode="!" horiz-adv-x="557" d="M150 25v211q0 10 7 17t17 7h211q27 0 27 -24v-211q0 -27 -27 -27h-211q-9 0 -17 8q-7 7 -7 19zM150 610v797q0 11 7 18q9 9 17 9h211q27 0 27 -27v-797q0 -24 -27 -24h-211q-10 0 -17 7t-7 17z" />
<glyph unicode="&#x22;" horiz-adv-x="985" d="M145 948v459q0 27 27 27h225q27 0 27 -27v-459q0 -26 -27 -26h-225q-27 0 -27 26zM565 948v459q0 27 27 27h225q27 0 27 -27v-459q0 -26 -27 -26h-225q-27 0 -27 26z" />
<glyph unicode="'" horiz-adv-x="569" d="M145 948v459q0 27 27 27h225q27 0 27 -27v-459q0 -26 -27 -26h-225q-27 0 -27 26z" />
<glyph unicode="(" horiz-adv-x="911" d="M43 700q-15 16 0 31l512 670q27 33 68 33h260q12 0 17 -11q4 -10 -1 -20l-528 -686l528 -688q6 -10 1 -21q-4 -10 -17 -10h-260q-44 0 -68 35z" />
<glyph unicode=")" horiz-adv-x="913" d="M16 8q-6 10 2 21l529 688l-529 686q-7 10 -2 20q6 11 17 11h260q40 0 67 -33l514 -670q12 -15 0 -31l-514 -667q-24 -35 -67 -35h-260q-11 0 -17 10z" />
<glyph unicode="+" horiz-adv-x="948" d="M53 588v223q0 27 27 27h256v258q0 26 26 26h224q26 0 26 -26v-258h258q27 0 27 -27v-223q0 -27 -27 -27h-258v-256q0 -26 -26 -26h-224q-26 0 -26 26v256h-256q-27 0 -27 27z" />
<glyph unicode="," horiz-adv-x="569" d="M145 -209v459q0 26 27 26h225q27 0 27 -26v-459q0 -27 -27 -27h-225q-27 0 -27 27z" />
<glyph unicode="-" horiz-adv-x="935" d="M150 598v223q0 27 26 27h588q27 0 27 -27v-223q0 -27 -27 -27h-588q-26 0 -26 27z" />
<glyph unicode="." horiz-adv-x="567" d="M145 25v225q0 26 27 26h223q27 0 27 -26v-225q0 -27 -27 -27h-223q-27 0 -27 27z" />
<glyph unicode="/" horiz-adv-x="1427" d="M16 8q-6 10 2 21l1053 1372q27 33 68 33h260q12 0 17 -11q4 -10 -3 -20l-1053 -1370q-24 -35 -67 -35h-260q-11 0 -17 10z" />
<glyph unicode="0" horiz-adv-x="1351" d="M150 25v1382q0 11 7 18q9 9 17 9h1008q24 0 24 -27v-1382q0 -27 -24 -27h-1008q-9 0 -17 8q-7 7 -7 19zM412 260h532v914h-532v-914z" />
<glyph unicode="1" horiz-adv-x="692" d="M16 1183q-6 8 2 19l152 199q27 33 68 33h284q25 0 25 -27v-1382q0 -27 -25 -27h-211q-24 0 -24 27v1149h-254q-11 0 -17 9z" />
<glyph unicode="2" horiz-adv-x="1128" d="M80 1183q-6 8 2 19l151 199q27 33 68 33h700q9 0 18 -9q7 -7 7 -18v-309q0 -18 -12 -35l-617 -805h604q11 0 18 -7t7 -18v-208q0 -12 -7 -19q-8 -8 -18 -8h-847q-10 0 -18 8q-7 7 -7 19v327l631 822h-664q-10 0 -16 9z" />
<glyph unicode="3" horiz-adv-x="1163" d="M150 25v208q0 11 7 18t17 7h578l-340 442q-12 16 0 31l340 440h-578q-8 0 -17 9q-7 7 -7 18v209q0 11 7 18q9 9 17 9h819q25 0 25 -27v-299q0 -25 -17 -53l-262 -340l262 -340q17 -23 17 -51v-299q0 -27 -25 -27h-819q-9 0 -17 8q-7 7 -7 19z" />
<glyph unicode="4" horiz-adv-x="1112" d="M39 397v301q0 31 18 52l500 651q23 33 66 33h262q10 0 15 -11q4 -10 -1 -20l-594 -770h684q25 0 25 -27v-581q0 -27 -25 -27h-211q-24 0 -24 27v346h-691q-9 0 -17 8q-7 7 -7 18z" />
<glyph unicode="5" horiz-adv-x="1208" d="M150 694v713q0 11 7 18q9 9 17 9h864q9 0 18 -9q7 -7 7 -18v-209q0 -10 -7 -17t-18 -7h-626v-244h626q11 0 18 -7t7 -18v-301q0 -27 -19 -51l-399 -520q-24 -35 -67 -35h-261q-10 0 -16 10t2 21l492 641h-621q-10 0 -17 7t-7 17z" />
<glyph unicode="6" horiz-adv-x="1357" d="M150 27v1382q0 10 7 17q8 8 17 8h576q43 0 67 -33l152 -197q5 -10 1 -20t-16 -10h-542v-912h534l-393 510q-8 11 -2 21t16 10h260q44 0 68 -35l299 -389q18 -21 18 -51v-301q0 -12 -7 -19q-8 -8 -17 -8h-1014q-9 0 -17 8q-7 7 -7 19z" />
<glyph unicode="7" horiz-adv-x="1150" d="M16 1423q6 11 17 11h948q25 0 25 -27v-1382q0 -27 -25 -27h-211q-25 0 -25 27v1149h-507q-45 0 -68 32l-152 197q-7 10 -2 20z" />
<glyph unicode="8" horiz-adv-x="1357" d="M150 25v299q0 30 18 51l260 340l-260 340q-18 24 -18 53v299q0 11 7 18q9 9 17 9h1014q8 0 17 -9q7 -7 7 -18v-299q0 -29 -18 -53l-260 -340l260 -340q18 -21 18 -51v-299q0 -12 -7 -19q-8 -8 -17 -8h-1014q-9 0 -17 8q-7 7 -7 19zM418 258h526l-262 344zM418 1171 l264 -342l262 342h-526z" />
<glyph unicode="9" horiz-adv-x="1357" d="M150 1108v301q0 10 7 17q8 8 17 8h1014q9 0 17 -8q7 -7 7 -17v-1382q0 -12 -7 -19q-8 -8 -17 -8h-576q-43 0 -67 35l-152 196q-6 10 -1 21q4 10 16 10h542v912h-534l393 -510q8 -11 2 -21t-16 -10h-260q-44 0 -68 35l-299 389q-18 23 -18 51z" />
<glyph unicode=":" horiz-adv-x="569" d="M145 289v225q0 27 27 27h225q27 0 27 -27v-225q0 -27 -27 -27h-225q-27 0 -27 27zM145 913v224q0 28 27 28h225q27 0 27 -28v-224q0 -26 -27 -26h-225q-27 0 -27 26z" />
<glyph unicode=";" horiz-adv-x="552" d="M145 25v407q0 10 8 18q7 7 17 7h211q27 0 27 -25v-407q0 -27 -27 -27h-211q-9 0 -17 8t-8 19zM145 903v211q0 10 8 18q7 7 17 7h211q27 0 27 -25v-211q0 -24 -27 -24h-211q-10 0 -17 7q-8 8 -8 17z" />
<glyph unicode="&#x3c;" horiz-adv-x="911" d="M43 700q-15 16 0 31l512 670q27 33 68 33h260q12 0 17 -11q4 -10 -1 -20l-528 -686l528 -688q6 -10 1 -21q-4 -10 -17 -10h-260q-44 0 -68 35z" />
<glyph unicode="&#x3e;" horiz-adv-x="913" d="M16 8q-6 10 2 21l529 688l-529 686q-7 10 -2 20q6 11 17 11h260q40 0 67 -33l514 -670q12 -15 0 -31l-514 -667q-24 -35 -67 -35h-260q-11 0 -17 10z" />
<glyph unicode="?" horiz-adv-x="1269" d="M150 1198v209q0 11 7 18q9 9 17 9h926q24 0 24 -27v-301q0 -29 -16 -51l-336 -437q-26 -32 -67 -32h-261q-12 0 -17 9q-4 9 3 19l428 560h-684q-10 0 -17 7t-7 17zM424 25v227q0 10 7 17t18 7h231q25 0 25 -24v-227q0 -27 -25 -27h-231q-10 0 -18 8q-7 7 -7 19z" />
<glyph unicode="A" horiz-adv-x="1503" d="M16 9q-6 9 2 20l1053 1372q27 33 68 33h194q25 0 25 -25v-1384q0 -25 -25 -25h-194q-41 0 -68 33l-354 463l-357 -463q-27 -33 -67 -33h-260q-11 0 -17 9zM887 717l211 -275v549z" />
<glyph unicode="B" horiz-adv-x="1425" d="M150 25v1384q0 10 7 17q8 8 17 8h1081q25 0 25 -25v-301q0 -29 -16 -51l-263 -340l263 -340q16 -22 16 -51v-301q0 -25 -25 -25h-1081q-10 0 -17 7t-7 18zM412 260h600l-338 440q-10 16 0 31l338 443h-600v-914z" />
<glyph unicode="C" horiz-adv-x="1468" d="M92 723q0 157 59 293q59 135 157 235q97 99 235 157q127 54 280 54h11q166 -1 306 -67q138 -64 242 -181q7 -9 6 -18t-10 -16l-161 -138q-8 -7 -19 -5q-9 1 -16 10q-64 74 -160 123q-86 44 -190 44h-9q-97 -2 -182 -42q-89 -42 -149 -108q-64 -70 -101 -159t-37 -192 t39 -193q39 -91 105 -158q66 -68 151 -105q87 -38 185 -38q101 1 192 47q90 45 156 123q6 8 16 9q10 2 19 -7l161 -137q9 -7 10 -16q1 -10 -6 -19q-106 -119 -247 -183q-143 -65 -309 -65h-5q-152 0 -287 59q-137 60 -233 159q-98 101 -154 239q-55 135 -55 295z" />
<glyph unicode="D" horiz-adv-x="1435" d="M150 25v1384q0 10 7 17q8 8 17 8h457q146 0 276 -56q131 -56 226 -150q94 -93 154 -223t61 -274v-19q0 -139 -55 -266q-59 -134 -158 -232q-102 -100 -235 -157q-134 -57 -286 -57h-440q-10 0 -17 7t-7 18zM412 260h219q95 0 177 36q83 36 145 98q63 63 99 146 q35 80 35 177t-35 177q-36 82 -99 145t-145 99t-177 36h-219v-914z" />
<glyph unicode="E" horiz-adv-x="1286" d="M150 25v1384q0 10 7 17q8 8 17 8h948q13 0 18 -10q4 -9 -3 -19l-152 -199q-26 -32 -67 -32h-506v-328h512q24 0 24 -25v-209q0 -26 -24 -26h-512v-326h647q10 0 17 -7t7 -17v-211q0 -25 -24 -25h-885q-10 0 -17 7t-7 18z" />
<glyph unicode="F" horiz-adv-x="1150" d="M150 25v1384q0 10 7 17q8 8 17 8h948q13 0 18 -10q4 -9 -3 -19l-152 -199q-26 -32 -67 -32h-506v-328h512q24 0 24 -25v-209q0 -26 -24 -26h-512v-561q0 -25 -27 -25h-211q-10 0 -17 7t-7 18z" />
<glyph unicode="G" d="M92 723q0 156 59 294q59 137 157 235t235 156q127 54 280 54h11q148 -1 280 -56q128 -53 229 -151q17 -17 3 -32l-132 -170q-6 -11 -17 -12t-19 10q-63 73 -158 120q-87 43 -188 43h-9q-98 0 -182 -40q-85 -40 -149 -109q-64 -68 -101 -159q-37 -90 -37 -193 q0 -101 39 -191q39 -89 105 -157q67 -69 151 -107q85 -39 185 -39q77 1 152 31q74 29 133 78q62 51 104 115q41 61 63 145h-399q-11 0 -16 9t1 19l132 193q27 37 69 37h486q6 -34 9 -68q2 -17 2 -38q0 -14 -1 -29q-1 -154 -61 -291q-60 -138 -159 -236t-237 -156 q-135 -57 -291 -57q-152 0 -287 59q-137 60 -233 159q-98 101 -154 239q-55 135 -55 295z" />
<glyph unicode="H" horiz-adv-x="1406" d="M150 25v1384q0 10 7 17q8 8 17 8h211q27 0 27 -25v-563h587v563q0 9 8 17t17 8h213q9 0 17 -8t8 -17v-1384q0 -10 -8 -18q-7 -7 -17 -7h-213q-10 0 -17 7q-8 8 -8 18v561h-587v-561q0 -25 -27 -25h-211q-10 0 -17 7t-7 18z" />
<glyph unicode="I" horiz-adv-x="557" d="M150 25v1384q0 10 7 17q8 8 17 8h211q27 0 27 -25v-1384q0 -25 -27 -25h-211q-10 0 -17 7t-7 18z" />
<glyph unicode="J" horiz-adv-x="937" d="M8 111q-16 18 2 36l162 136q18 15 33 0q57 -57 137 -57q8 0 16 1q74 7 125 66q49 56 49 133v983q0 9 8 17t17 8h211q25 0 25 -25v-977q0 -95 -34 -178t-94 -146t-142 -101q-83 -39 -173 -40q-11 -1 -22 -1q-89 0 -167 37q-87 41 -153 108z" />
<glyph unicode="K" horiz-adv-x="1363" d="M150 25v1384q0 10 7 17q8 8 17 8h211q27 0 27 -25v-1384q0 -25 -27 -25h-211q-10 0 -17 7t-7 18zM494 700q-10 16 0 31l514 670q27 33 67 33h260q13 0 18 -10q5 -9 -1 -19l-529 -688l527 -688q8 -11 3 -20t-18 -9h-260q-40 0 -67 33z" />
<glyph unicode="L" horiz-adv-x="1013" d="M150 25v1384q0 10 7 17q8 8 17 8h211q27 0 27 -25v-1149h573q13 0 17 -10q5 -12 -1 -19l-153 -198q-27 -33 -66 -33h-608q-10 0 -17 7t-7 18z" />
<glyph unicode="M" horiz-adv-x="2527" d="M16 9q-6 9 2 20l1053 1372q27 33 68 33h194q25 0 25 -25v-967l737 959q27 33 68 33h194q25 0 25 -25v-1384q0 -25 -25 -25h-211q-26 0 -26 25v966l-736 -958q-27 -33 -67 -33h-195q-24 0 -24 25v966l-738 -958q-27 -33 -67 -33h-260q-11 0 -17 9z" />
<glyph unicode="N" horiz-adv-x="1579" d="M150 25v1384q0 10 7 17q8 8 17 8h195q40 0 67 -33l738 -959v967q0 25 24 25h211q25 0 25 -25v-1384q0 -25 -25 -25h-195q-40 0 -67 33l-735 958v-966q0 -25 -27 -25h-211q-10 0 -17 7t-7 18z" />
<glyph unicode="O" d="M92 723q0 156 59 294q59 137 157 235t235 156q127 54 280 54h11q156 -2 290 -61q137 -61 235 -162q100 -103 157 -239q55 -130 55 -279v-10q-1 -155 -62 -291q-62 -139 -160 -236q-99 -98 -237 -156q-135 -57 -291 -57q-152 0 -287 59q-137 60 -233 159q-98 101 -154 239 q-55 135 -55 295zM354 713q0 -101 39 -191q39 -89 105 -157q67 -69 151 -107q85 -39 185 -39q94 1 182 43q85 40 150 110q66 70 102 159q35 84 35 181v11q0 100 -39 190q-40 92 -105 157q-69 69 -152 106q-85 38 -184 38q-97 -2 -182 -42q-89 -42 -149 -108 q-64 -70 -101 -159t-37 -192z" />
<glyph unicode="P" horiz-adv-x="1343" d="M150 29v1384q0 11 7 18t17 7h1081q11 0 18 -7t7 -18v-301q0 -28 -18 -51l-299 -391q-27 -33 -68 -33h-260q-13 0 -18 9q-4 8 4 20l393 512h-602v-1149q0 -25 -27 -25h-211q-10 0 -17 7t-7 18z" />
<glyph unicode="Q" d="M92 727q0 157 59 293q59 135 157 235q97 99 235 157q127 54 280 54h11q156 -2 290 -61q137 -61 235 -162q101 -104 157 -238q55 -130 55 -280v-10q-1 -135 -49 -259q-46 -121 -128 -218q-81 -96 -192 -162q-110 -66 -239 -88v-242q0 -27 -27 -27h-211q-25 0 -25 27v240 q-130 22 -243 87q-114 65 -194 163q-82 100 -126 224q-45 126 -45 267zM354 717q0 -83 27 -160q26 -75 73 -138q47 -64 109 -108q61 -44 137 -67v233q0 25 25 25h211q27 0 27 -25v-231q73 22 136 69q57 42 108 111q47 64 71 140q25 80 25 159q0 103 -39 191q-40 90 -105 157 q-68 69 -152 107q-87 39 -184 39q-97 -2 -182 -42q-87 -41 -149 -109q-64 -70 -101 -159t-37 -192z" />
<glyph unicode="R" horiz-adv-x="1419" d="M150 29v1384q0 11 7 18t17 7h1081q11 0 18 -7t7 -18v-301q0 -28 -18 -51l-324 -424l463 -604q6 -10 1 -20q-4 -9 -16 -9h-260q-40 0 -67 33l-449 584q-14 16 0 30l404 527h-602v-1149q0 -25 -27 -25h-211q-10 0 -17 7t-7 18z" />
<glyph unicode="S" horiz-adv-x="1206" d="M111 1014q0 97 40 178q40 82 108 141t160 94q93 35 193 35q162 0 278 -56q117 -56 177 -130q15 -18 -2 -33l-141 -147q-9 -9 -20 -9t-19 11q-13 16 -46 41q-22 17 -64 38q-29 15 -77 27q-39 10 -84 10q-51 0 -93 -15q-39 -14 -70 -40q-29 -24 -45 -57q-17 -34 -17 -70 q0 -58 39 -102t117 -60l200 -39q100 -18 174 -58q76 -41 124 -95q51 -57 77 -124q27 -69 27 -144q0 -84 -34 -162q-36 -83 -100 -144q-66 -63 -163 -101t-221 -38q-84 0 -165 19q-76 18 -139 48q-68 32 -110 65q-50 39 -78 71q-15 15 0 33l129 166q5 9 18 11q11 1 19 -7 q30 -28 64 -55q37 -29 75 -50q37 -21 88 -37q43 -14 101 -14q113 0 172 49t59 127q0 61 -44 108q-42 45 -130 62l-201 41q-172 34 -274 141t-102 271z" />
<glyph unicode="T" horiz-adv-x="1224" d="M78 1202v211q0 11 7 18t17 7h889q41 0 68 -33l151 -199q7 -10 3 -19q-5 -9 -17 -9h-457v-1149q0 -25 -24 -25h-211q-25 0 -25 25v1149h-377q-10 0 -17 7t-7 17z" />
<glyph unicode="U" horiz-adv-x="1366" d="M135 530v883q0 11 7 18t18 7h211q10 0 17 -7t7 -18v-887q0 -54 20 -105q20 -52 53 -90q35 -41 81 -65q47 -24 102 -30q15 -1 29 -1q48 0 91 15q57 21 98 59q44 41 67 93q25 56 25 116v895q0 10 8 18q7 7 18 7h209q10 0 17 -7q8 -8 8 -18v-895q0 -110 -42 -209 q-42 -98 -114 -172q-74 -76 -169 -118q-100 -45 -208 -46h-10q-109 0 -205 42q-97 42 -176 121q-75 75 -119 178q-43 101 -43 216z" />
<glyph unicode="V" horiz-adv-x="1503" d="M16 1427q6 11 17 11h260q40 0 67 -33l738 -959v967q0 11 7 18t17 7h211q11 0 18 -7t7 -18v-1384q0 -25 -25 -25h-194q-41 0 -68 33l-1053 1372q-8 8 -2 18z" />
<glyph unicode="W" horiz-adv-x="2527" d="M16 1427q6 11 17 11h260q40 0 67 -33l738 -959v967q0 11 7 18t17 7h195q40 0 67 -33l736 -959v967q0 10 8 18q7 7 18 7h211q11 0 18 -7t7 -18v-1384q0 -25 -25 -25h-194q-41 0 -68 33l-737 958v-966q0 -25 -25 -25h-194q-41 0 -68 33l-1053 1372q-8 8 -2 18z" />
<glyph unicode="X" horiz-adv-x="1427" d="M16 13q-6 9 2 20l529 688l-529 688q-8 8 -2 18q6 11 17 11h260q40 0 67 -33l357 -463l354 463q27 33 68 33h260q12 0 17 -11q4 -11 -3 -18l-528 -688l528 -688q8 -11 3 -20q-4 -9 -17 -9h-260q-41 0 -68 33l-354 463l-357 -463q-27 -33 -67 -33h-260q-11 0 -17 9z" />
<glyph unicode="Y" horiz-adv-x="1556" d="M16 1427q6 11 17 11h260q40 0 67 -33l420 -547l420 547q27 33 68 33h260q12 0 17 -11t-3 -18l-631 -823v-557q0 -11 -7 -18t-17 -7h-211q-27 0 -27 25v557l-631 823q-8 8 -2 18z" />
<glyph unicode="Z" horiz-adv-x="1191" d="M150 29v301q0 30 18 51l610 797h-604q-10 0 -17 7t-7 17v211q0 11 7 18t17 7h848q10 0 17 -7q8 -8 8 -18v-301q0 -27 -19 -51l-610 -797h604q10 0 17 -7q8 -8 8 -17v-211q0 -10 -8 -18q-7 -7 -17 -7h-848q-10 0 -17 7t-7 18z" />
<glyph unicode="\" horiz-adv-x="1427" d="M16 1423q6 11 17 11h260q40 0 67 -33l1053 -1372q7 -11 3 -21t-17 -10h-260q-44 0 -68 35l-1053 1370q-7 10 -2 20z" />
<glyph unicode="_" horiz-adv-x="1435" d="M150 27v223q0 26 26 26h1084q26 0 26 -26v-223q0 -27 -26 -27h-1084q-26 0 -26 27z" />
<glyph unicode="a" horiz-adv-x="1503" d="M150 25v1384q0 10 7 17q8 8 17 8h195q40 0 67 -33l1055 -1372q6 -10 1 -20q-4 -9 -17 -9h-261q-40 0 -67 33l-354 463l-357 -463q-27 -33 -67 -33h-195q-10 0 -17 7t-7 18zM412 442l211 275l-211 274v-549z" />
<glyph unicode="b" horiz-adv-x="1425" d="M150 25v1384q0 10 7 17q8 8 17 8h1081q25 0 25 -25v-301q0 -29 -16 -51l-263 -340l263 -340q16 -22 16 -51v-301q0 -25 -25 -25h-1081q-10 0 -17 7t-7 18zM412 260h600l-338 440q-10 16 0 31l338 443h-600v-914z" />
<glyph unicode="c" horiz-adv-x="1468" d="M92 723q0 157 59 293q59 135 157 235q97 99 235 157q127 54 280 54h11q166 -1 306 -67q138 -64 242 -181q7 -9 6 -18t-10 -16l-161 -138q-8 -7 -19 -5q-9 1 -16 10q-64 74 -160 123q-86 44 -190 44h-9q-97 -2 -182 -42q-89 -42 -149 -108q-64 -70 -101 -159t-37 -192 t39 -193q39 -91 105 -158q66 -68 151 -105q87 -38 185 -38q101 1 192 47q90 45 156 123q6 8 16 9q10 2 19 -7l161 -137q9 -7 10 -16q1 -10 -6 -19q-106 -119 -247 -183q-143 -65 -309 -65h-5q-152 0 -287 59q-137 60 -233 159q-98 101 -154 239q-55 135 -55 295z" />
<glyph unicode="d" horiz-adv-x="1435" d="M150 25v1384q0 10 7 17q8 8 17 8h457q146 0 276 -56q131 -56 226 -150q94 -93 154 -223t61 -274v-19q0 -139 -55 -266q-59 -134 -158 -232q-102 -100 -235 -157q-134 -57 -286 -57h-440q-10 0 -17 7t-7 18zM412 260h219q95 0 177 36q83 36 145 98q63 63 99 146 q35 80 35 177t-35 177q-36 82 -99 145t-145 99t-177 36h-219v-914z" />
<glyph unicode="e" horiz-adv-x="1150" d="M150 25v1384q0 10 7 17q8 8 17 8h885q24 0 24 -25v-211q0 -24 -24 -24h-647v-328h512q24 0 24 -25v-209q0 -26 -24 -26h-512v-326h710q14 0 18 -10q5 -11 -3 -19l-152 -198q-27 -33 -67 -33h-744q-10 0 -17 7t-7 18z" />
<glyph unicode="f" horiz-adv-x="1228" d="M150 25v1384q0 10 7 17q8 8 17 8h885q24 0 24 -25v-211q0 -24 -24 -24h-647v-328h563q11 0 15 -9q5 -10 -1 -20l-151 -199q-26 -32 -68 -32h-358v-561q0 -25 -27 -25h-211q-10 0 -17 7t-7 18z" />
<glyph unicode="g" d="M92 723q0 156 59 294q59 137 157 235t235 156q127 54 280 54h11q148 -1 280 -56q128 -53 229 -151q17 -17 3 -32l-132 -170q-6 -11 -17 -12t-19 10q-63 73 -158 120q-87 43 -188 43h-9q-98 0 -182 -40q-85 -40 -149 -109q-64 -68 -101 -159q-37 -90 -37 -193 q0 -101 39 -191q39 -89 105 -157q67 -69 151 -107q85 -39 185 -39q77 1 152 31q74 29 133 78q62 51 104 115q41 61 63 145h-399q-11 0 -16 9t1 19l132 193q27 37 69 37h486q6 -34 9 -68q2 -17 2 -38q0 -14 -1 -29q-1 -154 -61 -291q-60 -138 -159 -236t-237 -156 q-135 -57 -291 -57q-152 0 -287 59q-137 60 -233 159q-98 101 -154 239q-55 135 -55 295z" />
<glyph unicode="h" horiz-adv-x="1406" d="M150 25v1384q0 10 7 17q8 8 17 8h211q27 0 27 -25v-563h587v563q0 9 8 17t17 8h213q9 0 17 -8t8 -17v-1384q0 -10 -8 -18q-7 -7 -17 -7h-213q-10 0 -17 7q-8 8 -8 18v561h-587v-561q0 -25 -27 -25h-211q-10 0 -17 7t-7 18z" />
<glyph unicode="i" horiz-adv-x="557" d="M150 25v1384q0 10 7 17q8 8 17 8h211q27 0 27 -25v-1384q0 -25 -27 -25h-211q-10 0 -17 7t-7 18z" />
<glyph unicode="j" horiz-adv-x="929" d="M16 9q-6 9 2 20l504 657v723q0 10 7 17q8 8 18 8h211q26 0 26 -25v-797q0 -28 -18 -51l-406 -528q-27 -33 -67 -33h-260q-11 0 -17 9z" />
<glyph unicode="k" horiz-adv-x="1363" d="M150 25v1384q0 10 7 17q8 8 17 8h211q27 0 27 -25v-1384q0 -25 -27 -25h-211q-10 0 -17 7t-7 18zM494 700q-10 16 0 31l514 670q27 33 67 33h260q13 0 18 -10q5 -9 -1 -19l-529 -688l527 -688q8 -11 3 -20t-18 -9h-260q-40 0 -67 33z" />
<glyph unicode="l" horiz-adv-x="1013" d="M150 25v1384q0 10 7 17q8 8 17 8h211q27 0 27 -25v-1149h573q13 0 17 -10q5 -12 -1 -19l-153 -198q-27 -33 -66 -33h-608q-10 0 -17 7t-7 18z" />
<glyph unicode="m" horiz-adv-x="2527" d="M150 25v1384q0 10 7 17q8 8 17 8h195q40 0 67 -33l738 -959v967q0 25 24 25h195q40 0 67 -33l1053 -1372q8 -11 3 -20q-4 -9 -17 -9h-261q-40 0 -67 33l-737 958v-966q0 -25 -25 -25h-195q-40 0 -67 33l-735 958v-966q0 -25 -27 -25h-211q-10 0 -17 7t-7 18z" />
<glyph unicode="n" horiz-adv-x="1579" d="M150 25v1384q0 10 7 17q8 8 17 8h195q40 0 67 -33l738 -959v967q0 25 24 25h211q25 0 25 -25v-1384q0 -25 -25 -25h-195q-40 0 -67 33l-735 958v-966q0 -25 -27 -25h-211q-10 0 -17 7t-7 18z" />
<glyph unicode="o" d="M92 723q0 156 59 294q59 137 157 235t235 156q127 54 280 54h11q156 -2 290 -61q137 -61 235 -162q100 -103 157 -239q55 -130 55 -279v-10q-1 -155 -62 -291q-62 -139 -160 -236q-99 -98 -237 -156q-135 -57 -291 -57q-152 0 -287 59q-137 60 -233 159q-98 101 -154 239 q-55 135 -55 295zM354 713q0 -101 39 -191q39 -89 105 -157q67 -69 151 -107q85 -39 185 -39q94 1 182 43q85 40 150 110q66 70 102 159q35 84 35 181v11q0 100 -39 190q-40 92 -105 157q-69 69 -152 106q-85 38 -184 38q-97 -2 -182 -42q-89 -42 -149 -108 q-64 -70 -101 -159t-37 -192z" />
<glyph unicode="p" horiz-adv-x="1343" d="M150 29v1384q0 11 7 18t17 7h1081q11 0 18 -7t7 -18v-301q0 -28 -18 -51l-299 -391q-27 -33 -68 -33h-260q-13 0 -18 9q-4 8 4 20l393 512h-602v-1149q0 -25 -27 -25h-211q-10 0 -17 7t-7 18z" />
<glyph unicode="q" d="M90 725q0 111 32 219q32 109 91 197q62 93 143 161q84 70 191 111q128 53 278 53h11q153 0 288 -60q134 -60 236 -163q100 -101 157 -238q54 -128 54 -281v-11q-1 -123 -40 -237q-38 -111 -106 -204l187 -241q6 -10 1 -21q-4 -10 -16 -10h-262q-40 0 -67 33l-41 55 q-90 -56 -191 -86q-105 -31 -215 -31q-157 0 -290 60q-136 61 -232 160q-98 101 -154 239q-55 135 -55 295zM354 715q0 -101 39 -191q39 -89 105 -157q67 -69 151 -107q85 -39 185 -39q101 1 188 44q83 41 148 112q62 68 99 160q36 90 36 188q0 103 -39 191t-106 157 q-67 68 -153 107q-87 39 -184 39q-101 0 -186 -42q-87 -43 -150 -113t-99 -162q-34 -85 -34 -177v-10z" />
<glyph unicode="r" horiz-adv-x="1419" d="M150 29v1384q0 11 7 18t17 7h1081q11 0 18 -7t7 -18v-301q0 -28 -18 -51l-324 -424l463 -604q6 -10 1 -20q-4 -9 -16 -9h-260q-40 0 -67 33l-449 584q-14 16 0 30l404 527h-602v-1149q0 -25 -27 -25h-211q-10 0 -17 7t-7 18z" />
<glyph unicode="s" horiz-adv-x="1206" d="M111 1014q0 97 40 178q40 82 108 141t160 94q93 35 193 35q162 0 278 -56q117 -56 177 -130q15 -18 -2 -33l-141 -147q-9 -9 -20 -9t-19 11q-13 16 -46 41q-22 17 -64 38q-29 15 -77 27q-39 10 -84 10q-51 0 -93 -15q-39 -14 -70 -40q-29 -24 -45 -57q-17 -34 -17 -70 q0 -58 39 -102t117 -60l200 -39q100 -18 174 -58q76 -41 124 -95q51 -57 77 -124q27 -69 27 -144q0 -84 -34 -162q-36 -83 -100 -144q-66 -63 -163 -101t-221 -38q-84 0 -165 19q-76 18 -139 48q-68 32 -110 65q-50 39 -78 71q-15 15 0 33l129 166q5 9 18 11q11 1 19 -7 q30 -28 64 -55q37 -29 75 -50q37 -21 88 -37q43 -14 101 -14q113 0 172 49t59 127q0 61 -44 108q-42 45 -130 62l-201 41q-172 34 -274 141t-102 271z" />
<glyph unicode="t" horiz-adv-x="1224" d="M78 1202v211q0 11 7 18t17 7h889q41 0 68 -33l151 -199q7 -10 3 -19q-5 -9 -17 -9h-457v-1149q0 -25 -24 -25h-211q-25 0 -25 25v1149h-377q-10 0 -17 7t-7 17z" />
<glyph unicode="u" horiz-adv-x="1380" d="M150 530v883q0 11 7 18t17 7h211q10 0 17 -7q8 -8 8 -18v-887q0 -57 19 -105q20 -52 53 -90q35 -41 81 -65t103 -30q15 -1 29 -1q48 0 90 15q59 22 99 59q42 39 66 93q25 56 25 116v895q0 10 8 18q7 7 18 7h209q11 0 18 -7t7 -18v-895q0 -110 -42 -209q-42 -98 -114 -172 q-74 -76 -169 -118q-100 -45 -208 -46h-10q-109 0 -205 42q-97 42 -176 121q-73 73 -118 178q-43 101 -43 216z" />
<glyph unicode="v" horiz-adv-x="1503" d="M150 29v1384q0 11 7 18t17 7h211q11 0 18 -7q9 -9 9 -18v-967l735 959q27 33 67 33h261q12 0 17 -11t-1 -18l-1055 -1372q-27 -33 -67 -33h-195q-10 0 -17 7t-7 18z" />
<glyph unicode="w" horiz-adv-x="2527" d="M150 29v1384q0 11 7 18t17 7h211q11 0 18 -7q9 -9 9 -18v-967l735 959q27 33 67 33h195q10 0 17 -7q8 -8 8 -18v-967l737 959q27 33 67 33h261q12 0 17 -11q4 -11 -3 -18l-1053 -1372q-27 -33 -67 -33h-195q-24 0 -24 25v966l-738 -958q-27 -33 -67 -33h-195q-10 0 -17 7 t-7 18z" />
<glyph unicode="x" horiz-adv-x="1427" d="M16 13q-6 9 2 20l529 688l-529 688q-8 8 -2 18q6 11 17 11h260q40 0 67 -33l357 -463l354 463q27 33 68 33h260q12 0 17 -11q4 -11 -3 -18l-528 -688l528 -688q8 -11 3 -20q-4 -9 -17 -9h-260q-41 0 -68 33l-354 463l-357 -463q-27 -33 -67 -33h-260q-11 0 -17 9z" />
<glyph unicode="y" horiz-adv-x="1556" d="M16 1427q6 11 17 11h260q40 0 67 -33l420 -547l420 547q27 33 68 33h260q12 0 17 -11t-3 -18l-1053 -1372q-27 -33 -67 -33h-260q-11 0 -17 9t2 20l463 604l-592 772q-8 8 -2 18z" />
<glyph unicode="z" horiz-adv-x="1191" d="M150 29v301q0 30 18 51l610 797h-604q-10 0 -17 7t-7 17v211q0 11 7 18t17 7h848q10 0 17 -7q8 -8 8 -18v-301q0 -27 -19 -51l-610 -797h604q10 0 17 -7q8 -8 8 -17v-211q0 -10 -8 -18q-7 -7 -17 -7h-848q-10 0 -17 7t-7 18z" />
<glyph unicode="|" horiz-adv-x="557" d="M150 25v1384q0 10 7 17q8 8 17 8h211q27 0 27 -25v-1384q0 -25 -27 -25h-211q-10 0 -17 7t-7 18z" />
<glyph unicode="&#xad;" horiz-adv-x="935" d="M150 598v223q0 27 26 27h588q27 0 27 -27v-223q0 -27 -27 -27h-588q-26 0 -26 27z" />
<glyph unicode="&#x2000;" horiz-adv-x="733" />
<glyph unicode="&#x2001;" horiz-adv-x="1466" />
<glyph unicode="&#x2002;" horiz-adv-x="733" />
<glyph unicode="&#x2003;" horiz-adv-x="1466" />
<glyph unicode="&#x2004;" horiz-adv-x="488" />
<glyph unicode="&#x2005;" horiz-adv-x="366" />
<glyph unicode="&#x2006;" horiz-adv-x="244" />
<glyph unicode="&#x2007;" horiz-adv-x="244" />
<glyph unicode="&#x2008;" horiz-adv-x="183" />
<glyph unicode="&#x2009;" horiz-adv-x="293" />
<glyph unicode="&#x200a;" horiz-adv-x="81" />
<glyph unicode="&#x2010;" horiz-adv-x="935" d="M150 598v223q0 27 26 27h588q27 0 27 -27v-223q0 -27 -27 -27h-588q-26 0 -26 27z" />
<glyph unicode="&#x2011;" horiz-adv-x="935" d="M150 598v223q0 27 26 27h588q27 0 27 -27v-223q0 -27 -27 -27h-588q-26 0 -26 27z" />
<glyph unicode="&#x2012;" horiz-adv-x="935" d="M150 598v223q0 27 26 27h588q27 0 27 -27v-223q0 -27 -27 -27h-588q-26 0 -26 27z" />
<glyph unicode="&#x2013;" horiz-adv-x="940" d="M150 598v223q0 27 26 27h588q27 0 27 -27v-223q0 -27 -27 -27h-588q-26 0 -26 27z" />
<glyph unicode="&#x2014;" horiz-adv-x="1187" d="M150 598v223q0 27 26 27h836q26 0 26 -27v-223q0 -27 -26 -27h-836q-26 0 -26 27z" />
<glyph unicode="&#x2018;" horiz-adv-x="569" d="M145 948v459q0 27 27 27h225q27 0 27 -27v-459q0 -26 -27 -26h-225q-27 0 -27 26z" />
<glyph unicode="&#x2019;" horiz-adv-x="569" d="M145 948v459q0 27 27 27h225q27 0 27 -27v-459q0 -26 -27 -26h-225q-27 0 -27 26z" />
<glyph unicode="&#x201c;" horiz-adv-x="985" d="M145 948v459q0 27 27 27h225q27 0 27 -27v-459q0 -26 -27 -26h-225q-27 0 -27 26zM565 948v459q0 27 27 27h225q27 0 27 -27v-459q0 -26 -27 -26h-225q-27 0 -27 26z" />
<glyph unicode="&#x201d;" horiz-adv-x="985" d="M145 948v459q0 27 27 27h225q27 0 27 -27v-459q0 -26 -27 -26h-225q-27 0 -27 26zM565 948v459q0 27 27 27h225q27 0 27 -27v-459q0 -26 -27 -26h-225q-27 0 -27 26z" />
<glyph unicode="&#x202f;" horiz-adv-x="293" />
<glyph unicode="&#x205f;" horiz-adv-x="366" />
<glyph unicode="&#x25fc;" horiz-adv-x="1433" d="M0 0v1434h1434v-1434h-1434z" />
</font>
</defs>
</svg>
